<svg width="114" height="42" viewBox="0 0 114 42" fill="none" xmlns="http://www.w3.org/2000/svg">
<g clip-path="url(#clip0_301_2371)">
<path d="M49.5481 13.0481C48.2201 13.0481 47.1885 12.7789 46.4532 12.2381C45.718 11.6974 45.3503 10.9519 45.3503 9.99954V9.38982H47.1974V10.0351C47.1974 10.5937 47.4046 11.0276 47.8213 11.3414C48.2379 11.6551 48.8128 11.8109 49.5481 11.8109C50.2833 11.8109 50.8626 11.6507 51.2882 11.3325C51.7115 11.012 51.9232 10.5737 51.9232 10.0173C51.9232 9.44768 51.716 8.96703 51.2993 8.57094C50.8827 8.1882 50.0917 7.73425 48.9242 7.21132C47.5807 6.6194 46.6515 6.04974 46.1413 5.50233C45.6444 4.95715 45.3971 4.29403 45.3971 3.5152C45.3971 2.57392 45.7648 1.83737 46.5 1.30109C47.2353 0.767028 48.2669 0.5 49.5948 0.5C50.9228 0.5 51.9433 0.769254 52.654 1.30999C53.3648 1.85072 53.7213 2.59617 53.7213 3.54858V3.94912H51.8987V3.51297C51.8987 2.95444 51.6982 2.52052 51.2993 2.20676C50.8983 1.893 50.3323 1.73723 49.5948 1.73723C48.8908 1.73723 48.336 1.89077 47.9282 2.20008C47.5205 2.50716 47.3155 2.92996 47.3155 3.46402C47.3155 3.99807 47.5316 4.45647 47.9639 4.84144C48.3805 5.20193 49.1871 5.65588 50.388 6.20106C51.6848 6.78185 52.5872 7.35818 53.0996 7.92562C53.5943 8.45967 53.8438 9.1406 53.8438 9.96393C53.8438 10.9163 53.4628 11.6685 52.703 12.2203C51.9432 12.7722 50.8916 13.0481 49.5481 13.0481Z" fill="white"/>
<path d="M60.4903 12.8723H58.5697V1.92859H55.1384V0.673553H63.9215V1.92859H60.4903V12.8723Z" fill="white"/>
<path d="M73.3039 12.8723H71.3365L70.5924 10.2755H66.0337L65.314 12.8723H63.4915L67.0653 0.673553H69.6811L73.3039 12.8723ZM68.2885 2.26015L66.3924 9.05602H70.2314L68.2885 2.26015Z" fill="white"/>
<path d="M78.6803 12.8723H76.7374V7.54064L72.8494 0.673553H74.9371L77.7935 5.83165L80.6499 0.673553H82.5705L78.6825 7.54064V12.8723H78.6803Z" fill="white"/>
<path d="M50.1719 27.1005H47.6052L45.1565 14.9017H47.0281L49.0445 25.2357L51.2035 14.9017H53.2422L55.3767 25.2357L57.4154 14.9017H59.1422L56.6712 27.1005H54.2471L52.2084 17.4986L50.1719 27.1005Z" fill="white"/>
<path d="M63.0346 27.1005H61.114V14.8995H63.0346V27.1005Z" fill="white"/>
<path d="M70.305 27.1005H68.3844V16.1545H64.9531V14.8995H73.7362V16.1545H70.305V27.1005Z" fill="white"/>
<path d="M77.5752 27.1005H75.6545V14.8995H77.5752V20.1978H82.399V14.8995H84.3196V27.0983H82.399V21.435H77.5752V27.1005Z" fill="white"/>
<path d="M45.8049 38.2934V29.1277H47.7255V38.3825C47.7255 39.6264 48.5098 40.2472 50.0762 40.2472C51.6603 40.2472 52.4513 39.6264 52.4513 38.3825V29.1277H54.3229V38.2934C54.3229 39.317 53.9553 40.107 53.22 40.6633C52.4847 41.2219 51.4286 41.5 50.0517 41.5C48.6747 41.5 47.623 41.2219 46.8967 40.6633C46.1703 40.107 45.8049 39.317 45.8049 38.2934Z" fill="white"/>
<path d="M66.2009 41.3264H64.1377L60.8267 35.1225L58.8593 37.2832V41.3264H56.9387V29.1277H58.8593V35.2449L64.1154 29.1277H66.1318L62.148 33.7117L66.2009 41.3264Z" fill="white"/>
<path d="M70.0175 41.3264H68.0969V29.1277H72.2011C73.6716 29.1277 74.7522 29.3636 75.4407 29.8331C76.1292 30.3026 76.4723 31.0325 76.4723 32.0205V32.5612C76.4723 33.9787 75.7192 34.8443 74.2175 35.1581V35.1937C75.737 35.4385 76.4968 36.3375 76.4968 37.8951V39.7599C76.4968 40.423 76.5837 40.9459 76.7597 41.3287H74.8168C74.6564 40.9927 74.5762 40.463 74.5762 39.7421V37.8083C74.5762 37.1118 74.3712 36.6178 73.9635 36.3263C73.5557 36.037 72.8628 35.8902 71.8869 35.8902H70.0153V41.3264H70.0175ZM70.0175 30.3827V34.6351H71.8891C72.8004 34.6351 73.4733 34.4905 73.9055 34.199C74.3378 33.9097 74.5539 33.4446 74.5539 32.8038V32.1941C74.5539 31.5554 74.369 31.0926 74.0014 30.8077C73.6337 30.5229 73.0255 30.3805 72.1788 30.3805H70.0175V30.3827Z" fill="white"/>
<path d="M88.134 41.3264H86.1666L85.4224 38.7296H80.8638L80.1441 41.3264H78.3215L81.8976 29.1277H84.5134L88.134 41.3264ZM83.1186 30.7121L81.2225 37.5079H85.0615L83.1186 30.7121Z" fill="white"/>
<path d="M91.9484 41.3264H90.0278V29.1277H91.9484V41.3264Z" fill="white"/>
<path d="M96.4604 41.3264H94.6846V29.1277H97.18L101.788 38.1199V29.1277H103.539V41.3264H101.547L96.4604 31.2528V41.3264Z" fill="white"/>
<path d="M114 41.3264H106.273V29.1277H114V30.3827H108.194V34.426H112.944V35.6632H108.194V40.0714H114V41.3264Z" fill="white"/>
<path d="M15.8239 16.3036H0V25.6964H15.8239V16.3036Z" fill="#0056A4"/>
<path d="M25.2287 0.5H15.824V16.3036H25.2287V0.5Z" fill="#0056A4"/>
<path d="M41.0526 16.3036V25.6964H25.231V41.5H15.824V16.3036H41.0526Z" fill="#FFDD00"/>
<path d="M23.1631 36.8849C23.1074 36.8782 23.0561 36.8537 23.0561 36.8537C22.9135 36.689 22.7509 36.669 22.7509 36.669C22.3766 36.6134 21.8596 36.8849 21.8596 36.8849L21.4697 36.1639L17.6218 37.7527C17.6218 37.7527 18.0407 38.0887 18.6646 38.0598C19.2884 38.0309 19.6895 37.8773 19.6895 37.8773C19.6895 37.8773 20.3869 37.6615 20.4738 37.6303C20.4337 37.4879 20.447 37.4545 20.447 37.4545C20.476 37.2409 20.6899 37.232 20.6899 37.232C20.9595 37.2164 21.0442 37.4367 21.0442 37.4367L20.8659 37.637C20.652 37.9151 20.2398 38.1866 20.2398 38.1866C20.1819 38.2356 20.0126 38.3201 20.0126 38.3201C19.9279 38.3646 19.7964 38.4025 19.7964 38.4025C19.7964 38.4025 17.7555 39.0122 18.0229 39.3015C18.2903 39.5907 19.9658 38.645 19.9502 38.6606C20.1373 38.5627 20.1975 38.5493 20.1975 38.5493C20.8058 38.3669 21.6146 38.4358 21.6146 38.4358C22.6551 38.4314 23.2121 37.2921 23.2032 37.2031C23.2143 37.0785 23.3168 37.0584 23.3658 37.0339C23.4126 37.0095 23.6466 36.8871 23.6466 36.8871C23.6466 36.8871 23.2188 36.8915 23.1631 36.8849ZM20.1151 37.4634C19.4511 37.7082 19.0166 37.7683 19.0166 37.7683C18.4774 37.8528 18.3259 37.7527 18.3259 37.7527L20.2532 36.9605L20.3245 37.0874C20.0816 37.2498 20.1151 37.4634 20.1151 37.4634ZM22.713 37.2075L22.1627 37.4323L22.0268 37.1808C22.0268 37.1786 22.3008 37.0985 22.713 37.2075ZM20.5963 36.9716L20.5273 36.847L21.3227 36.5155L21.5789 36.9828C21.5789 36.9828 21.4697 37.0317 21.2514 37.2275C21.2536 37.2298 20.9862 36.8871 20.5963 36.9716ZM21.5277 38.1644C21.3494 38.1087 20.7456 38.1688 20.7456 38.1688C21.0419 37.9507 21.2402 37.6437 21.2402 37.6437C21.3071 37.7327 21.5722 37.8261 21.5722 37.8261C21.4942 38.0064 21.5277 38.1644 21.5277 38.1644ZM21.4341 37.4501C21.4341 37.4501 21.4697 37.3455 21.7349 37.2676L21.8864 37.5435C21.8864 37.5435 21.5856 37.6704 21.4341 37.4501ZM21.8218 38.1577C21.7215 37.9174 22.0245 37.795 22.0245 37.795L22.1738 38.0709C21.9376 38.2022 21.8218 38.1577 21.8218 38.1577ZM22.4345 37.9329L22.2964 37.6815L22.8445 37.4545C22.684 37.8017 22.4345 37.9329 22.4345 37.9329ZM22.9314 36.985C22.9068 37.025 22.8467 37.0428 22.7999 37.0206C22.7531 36.9983 22.7353 36.9472 22.7598 36.9071C22.7843 36.8671 22.8445 36.8493 22.8912 36.8715C22.938 36.8938 22.9559 36.9427 22.9314 36.985Z" fill="black"/>
</g>
<defs>
<clipPath id="clip0_301_2371">
<rect width="114" height="41" fill="white" transform="translate(0 0.5)"/>
</clipPath>
</defs>
</svg>
