<svg width="168" height="60" viewBox="0 0 168 60" fill="none" xmlns="http://www.w3.org/2000/svg">
<g clip-path="url(#clip0_991_85)">
<path d="M73.0181 18.3631C71.0612 18.3631 69.5409 17.9691 68.4574 17.1777C67.3738 16.3864 66.832 15.2955 66.832 13.9018V13.0095H69.5541V13.9539C69.5541 14.7712 69.8594 15.4062 70.4734 15.8654C71.0874 16.3246 71.9346 16.5525 73.0181 16.5525C74.1017 16.5525 74.9554 16.318 75.5825 15.8524C76.2064 15.3834 76.5183 14.7419 76.5183 13.9278C76.5183 13.0942 76.213 12.3908 75.599 11.8111C74.985 11.251 73.8193 10.5867 72.0988 9.82144C70.1188 8.95522 68.7496 8.12157 67.9977 7.32049C67.2655 6.52266 66.901 5.55224 66.901 4.41248C66.901 3.03501 67.4428 1.95712 68.5263 1.17232C69.6099 0.390773 71.1301 0 73.0871 0C75.0441 0 76.5479 0.39403 77.5953 1.18535C78.6428 1.97666 79.1681 3.06757 79.1681 4.46133V5.04749H76.4822V4.40923C76.4822 3.59186 76.1867 2.95685 75.599 2.49769C75.0079 2.03853 74.1739 1.81058 73.0871 1.81058C72.0495 1.81058 71.2319 2.03528 70.631 2.48792C70.0302 2.93731 69.7281 3.55604 69.7281 4.33758C69.7281 5.11913 70.0466 5.78996 70.6836 6.35332C71.2976 6.88087 72.4862 7.54518 74.256 8.34301C76.167 9.19295 77.4968 10.0364 78.252 10.8668C78.981 11.6483 79.3487 12.6448 79.3487 13.8497C79.3487 15.2434 78.7872 16.3441 77.6676 17.1517C76.5479 17.9593 74.9981 18.3631 73.0181 18.3631Z" fill="black"/>
<path d="M89.1448 18.1057H86.3144V2.09054H81.2578V0.253906H94.2014V2.09054H89.1448V18.1057Z" fill="black"/>
<path d="M108.027 18.1057H105.128L104.031 14.3055H97.3129L96.2523 18.1057H93.5664L98.8331 0.253906H102.688L108.027 18.1057ZM100.636 2.57575L97.8415 12.5209H103.499L100.636 2.57575Z" fill="black"/>
<path d="M115.95 18.1057H113.087V10.3033L107.357 0.253906H110.434L114.643 7.80235L118.853 0.253906H121.683L115.954 10.3033V18.1057H115.95Z" fill="black"/>
<path d="M73.938 38.928H70.1554L66.5469 21.0762H69.305L72.2766 36.1991L75.4583 21.0762H78.4627L81.6083 36.1991L84.6127 21.0762H87.1574L83.516 38.928H79.9435L76.9391 24.8764L73.938 38.928Z" fill="black"/>
<path d="M92.8929 38.9274H90.0625V21.0723H92.8929V38.9274Z" fill="black"/>
<path d="M103.608 38.9274H100.777V22.9089H95.7207V21.0723H108.664V22.9089H103.608V38.9274Z" fill="black"/>
<path d="M114.323 38.9274H111.492V21.0723H114.323V28.8259H121.431V21.0723H124.262V38.9241H121.431V30.6364H114.323V38.9274Z" fill="black"/>
<path d="M67.502 55.3078V41.8945H70.3323V55.4381C70.3323 57.2584 71.4881 58.167 73.7964 58.167C76.131 58.167 77.2966 57.2584 77.2966 55.4381V41.8945H80.0548V55.3078C80.0548 56.8058 79.513 57.9618 78.4294 58.7759C77.3459 59.5933 75.7895 60.0004 73.7603 60.0004C71.7311 60.0004 70.1813 59.5933 69.1109 58.7759C68.0404 57.9618 67.502 56.8058 67.502 55.3078Z" fill="black"/>
<path d="M97.5596 59.7464H94.5191L89.6399 50.6674L86.7405 53.8294V59.7464H83.9102V41.8945H86.7405V50.8465L94.4863 41.8945H97.4579L91.587 48.6028L97.5596 59.7464Z" fill="black"/>
<path d="M103.184 59.7464H100.354V41.8945H106.402C108.569 41.8945 110.161 42.2397 111.176 42.9268C112.191 43.6139 112.696 44.682 112.696 46.1279V46.9192C112.696 48.9936 111.586 50.2603 109.373 50.7195V50.7716C111.613 51.1298 112.732 52.4454 112.732 54.7249V57.4538C112.732 58.4242 112.86 59.1895 113.12 59.7496H110.257C110.02 59.2579 109.902 58.4829 109.902 57.4278V54.5979C109.902 53.5787 109.6 52.8557 108.999 52.4291C108.398 52.0058 107.377 51.7909 105.939 51.7909H103.181V59.7464H103.184ZM103.184 43.7312V49.9542H105.942C107.285 49.9542 108.277 49.7426 108.914 49.316C109.551 48.8926 109.869 48.212 109.869 47.2742V46.3819C109.869 45.4473 109.597 44.77 109.055 44.3531C108.513 43.9363 107.617 43.7279 106.369 43.7279H103.184V43.7312Z" fill="black"/>
<path d="M129.882 59.7464H126.983L125.886 55.9461H119.168L118.108 59.7464H115.422L120.692 41.8945H124.547L129.882 59.7464ZM122.491 44.2131L119.697 54.1583H125.354L122.491 44.2131Z" fill="black"/>
<path d="M135.504 59.7464H132.674V41.8945H135.504V59.7464Z" fill="black"/>
<path d="M142.152 59.7464H139.535V41.8945H143.213L150.003 55.0538V41.8945H152.584V59.7464H149.648L142.152 45.0044V59.7464Z" fill="black"/>
<path d="M168 59.7464H156.613V41.8945H168V43.7312H159.444V49.6481H166.444V51.4587H159.444V57.9097H168V59.7464Z" fill="black"/>
<path d="M23.3194 23.127H0V36.8724H23.3194V23.127Z" fill="#0056A4"/>
<path d="M37.1799 0H23.3203V23.1273H37.1799V0Z" fill="#0056A4"/>
<path d="M60.4993 23.127V36.8724H37.1832V59.9997H23.3203V23.127H60.4993Z" fill="#FFDD00"/>
<path d="M34.1348 53.2465C34.0527 53.2367 33.9772 53.2009 33.9772 53.2009C33.7671 52.9599 33.5274 52.9306 33.5274 52.9306C32.9757 52.8492 32.214 53.2465 32.214 53.2465L31.6393 52.1914L25.9688 54.5165C25.9688 54.5165 26.586 55.0082 27.5054 54.9659C28.4248 54.9236 29.0158 54.6989 29.0158 54.6989C29.0158 54.6989 30.0436 54.383 30.1716 54.3374C30.1125 54.129 30.1322 54.0801 30.1322 54.0801C30.1749 53.7675 30.4901 53.7545 30.4901 53.7545C30.8874 53.7317 31.0122 54.0541 31.0122 54.0541L30.7495 54.3472C30.4343 54.7542 29.8269 55.1515 29.8269 55.1515C29.7415 55.2232 29.4919 55.3469 29.4919 55.3469C29.3672 55.412 29.1734 55.4674 29.1734 55.4674C29.1734 55.4674 26.1658 56.3597 26.5598 56.783C26.9538 57.2063 29.423 55.8223 29.4 55.8451C29.6758 55.7019 29.7645 55.6823 29.7645 55.6823C30.6609 55.4153 31.8528 55.5162 31.8528 55.5162C33.3862 55.5097 34.207 53.8424 34.1939 53.7122C34.2103 53.5298 34.3614 53.5005 34.4336 53.4647C34.5026 53.4289 34.8473 53.2498 34.8473 53.2498C34.8473 53.2498 34.2169 53.2563 34.1348 53.2465ZM29.643 54.0932C28.6645 54.4514 28.0242 54.5393 28.0242 54.5393C27.2296 54.663 27.0063 54.5165 27.0063 54.5165L29.8466 53.3572L29.9516 53.5428C29.5937 53.7805 29.643 54.0932 29.643 54.0932ZM33.4715 53.7187L32.6605 54.0476L32.4602 53.6796C32.4602 53.6763 32.8641 53.5591 33.4715 53.7187ZM30.3522 53.3735L30.2504 53.1911L31.4226 52.7059L31.8002 53.3898C31.8002 53.3898 31.6393 53.4614 31.3176 53.748C31.3208 53.7512 30.9268 53.2497 30.3522 53.3735ZM31.7247 55.1189C31.462 55.0375 30.5722 55.1255 30.5722 55.1255C31.0089 54.8063 31.3011 54.3569 31.3011 54.3569C31.3997 54.4872 31.7904 54.624 31.7904 54.624C31.6755 54.8877 31.7247 55.1189 31.7247 55.1189ZM31.5868 54.0736C31.5868 54.0736 31.6393 53.9206 32.0301 53.8066L32.2534 54.2104C32.2534 54.2104 31.8101 54.396 31.5868 54.0736ZM32.1581 55.1092C32.0104 54.7575 32.4569 54.5784 32.4569 54.5784L32.6769 54.9822C32.3289 55.1743 32.1581 55.1092 32.1581 55.1092ZM33.0611 54.7803L32.8575 54.4123L33.6653 54.0801C33.4289 54.5882 33.0611 54.7803 33.0611 54.7803ZM33.7933 53.393C33.7572 53.4517 33.6685 53.4777 33.5996 53.4451C33.5306 53.4126 33.5044 53.3377 33.5405 53.2791C33.5766 53.2204 33.6653 53.1944 33.7342 53.227C33.8032 53.2595 33.8294 53.3312 33.7933 53.393Z" fill="black"/>
</g>
<defs>
<clipPath id="clip0_991_85">
<rect width="168" height="60" fill="white"/>
</clipPath>
</defs>
</svg>
