<svg width="44" height="44" viewBox="0 0 44 44" fill="none" xmlns="http://www.w3.org/2000/svg">
<g clip-path="url(#clip0_156_1038)">
<path d="M16.96 16.96H0V27.04H16.96V16.96Z" fill="#0056A4"/>
<path d="M27.04 0H16.96V16.96H27.04V0Z" fill="#0056A4"/>
<path d="M44 16.96V27.04H27.0423V44H16.96V16.96H44Z" fill="#FFDD00"/>
<path d="M24.8263 39.0471C24.7666 39.04 24.7117 39.0137 24.7117 39.0137C24.5588 38.837 24.3845 38.8155 24.3845 38.8155C23.9833 38.7558 23.4293 39.0471 23.4293 39.0471L23.0114 38.2734L18.8872 39.9785C18.8872 39.9785 19.3362 40.3391 20.0048 40.308C20.6735 40.277 21.1033 40.1122 21.1033 40.1122C21.1033 40.1122 21.8508 39.8806 21.9439 39.8471C21.9009 39.6943 21.9153 39.6585 21.9153 39.6585C21.9463 39.4292 22.1756 39.4197 22.1756 39.4197C22.4645 39.403 22.5553 39.6394 22.5553 39.6394L22.3642 39.8543C22.135 40.1528 21.6932 40.4442 21.6932 40.4442C21.6311 40.4967 21.4496 40.5874 21.4496 40.5874C21.3588 40.6352 21.218 40.6758 21.218 40.6758C21.218 40.6758 19.0305 41.3301 19.3171 41.6406C19.6036 41.951 21.3994 40.9361 21.3827 40.9528C21.5833 40.8477 21.6478 40.8334 21.6478 40.8334C22.2997 40.6376 23.1666 40.7116 23.1666 40.7116C24.2818 40.7068 24.8788 39.4842 24.8693 39.3886C24.8812 39.2549 24.9911 39.2334 25.0436 39.2071C25.0938 39.1809 25.3445 39.0495 25.3445 39.0495C25.3445 39.0495 24.886 39.0543 24.8263 39.0471ZM21.5594 39.668C20.8478 39.9307 20.3821 39.9952 20.3821 39.9952C19.8042 40.0859 19.6418 39.9785 19.6418 39.9785L21.7075 39.1283L21.7839 39.2644C21.5236 39.4388 21.5594 39.668 21.5594 39.668ZM24.3439 39.3934L23.7541 39.6346L23.6084 39.3647C23.6084 39.3624 23.9021 39.2764 24.3439 39.3934ZM22.0753 39.1403L22.0012 39.0065L22.8538 38.6507L23.1284 39.1522C23.1284 39.1522 23.0114 39.2047 22.7774 39.4149C22.7797 39.4173 22.4932 39.0495 22.0753 39.1403ZM23.0735 40.4203C22.8824 40.3606 22.2353 40.425 22.2353 40.425C22.5529 40.191 22.7654 39.8615 22.7654 39.8615C22.8371 39.957 23.1212 40.0573 23.1212 40.0573C23.0377 40.2507 23.0735 40.4203 23.0735 40.4203ZM22.9732 39.6537C22.9732 39.6537 23.0114 39.5415 23.2956 39.4579L23.458 39.754C23.458 39.754 23.1356 39.8901 22.9732 39.6537ZM23.3887 40.4131C23.2812 40.1552 23.606 40.0239 23.606 40.0239L23.766 40.32C23.5129 40.4609 23.3887 40.4131 23.3887 40.4131ZM24.0454 40.1719L23.8974 39.9021L24.4848 39.6585C24.3129 40.031 24.0454 40.1719 24.0454 40.1719ZM24.578 39.1546C24.5517 39.1976 24.4872 39.2167 24.4371 39.1928C24.3869 39.1689 24.3678 39.114 24.3941 39.071C24.4203 39.028 24.4848 39.0089 24.535 39.0328C24.5851 39.0567 24.6042 39.1092 24.578 39.1546Z" fill="black"/>
</g>
<defs>
<clipPath id="clip0_156_1038">
<rect width="44" height="44" fill="white"/>
</clipPath>
</defs>
</svg>
